<svg xmlns="http://www.w3.org/2000/svg" viewBox="0 0 7.2 7.2"><path d="M3.60 0.00L2.54 1.05L2.55 2.55L1.05 2.54L0.00 3.60L-1.05 2.54L-2.55 2.55L-2.54 1.05L-3.60 0.00L-2.54 -1.05L-2.55 -2.55L-1.05 -2.54L-0.00 -3.60L1.05 -2.54L2.55 -2.55L2.54 -1.05ZM1.60 0.66L1.03 1.03L0.66 1.60L0.00 1.45L-0.66 1.60L-1.03 1.03L-1.60 0.66L-1.45 0.00L-1.60 -0.66L-1.03 -1.03L-0.66 -1.60L-0.00 -1.45L0.66 -1.60L1.03 -1.03L1.60 -0.66L1.45 -0.00ZM3.60 7.20L2.54 8.25L2.55 9.75L1.05 9.74L0.00 10.80L-1.05 9.74L-2.55 9.75L-2.54 8.25L-3.60 7.20L-2.54 6.15L-2.55 4.65L-1.05 4.66L-0.00 3.60L1.05 4.66L2.55 4.65L2.54 6.15ZM1.60 7.86L1.03 8.23L0.66 8.80L0.00 8.65L-0.66 8.80L-1.03 8.23L-1.60 7.86L-1.45 7.20L-1.60 6.54L-1.03 6.17L-0.66 5.60L-0.00 5.75L0.66 5.60L1.03 6.17L1.60 6.54L1.45 7.20ZM10.80 0.00L9.74 1.05L9.75 2.55L8.25 2.54L7.20 3.60L6.15 2.54L4.65 2.55L4.66 1.05L3.60 0.00L4.66 -1.05L4.65 -2.55L6.15 -2.54L7.20 -3.60L8.25 -2.54L9.75 -2.55L9.74 -1.05ZM8.80 0.66L8.23 1.03L7.86 1.60L7.20 1.45L6.54 1.60L6.17 1.03L5.60 0.66L5.75 0.00L5.60 -0.66L6.17 -1.03L6.54 -1.60L7.20 -1.45L7.86 -1.60L8.23 -1.03L8.80 -0.66L8.65 -0.00ZM10.80 7.20L9.74 8.25L9.75 9.75L8.25 9.74L7.20 10.80L6.15 9.74L4.65 9.75L4.66 8.25L3.60 7.20L4.66 6.15L4.65 4.65L6.15 4.66L7.20 3.60L8.25 4.66L9.75 4.65L9.74 6.15ZM8.80 7.86L8.23 8.23L7.86 8.80L7.20 8.65L6.54 8.80L6.17 8.23L5.60 7.86L5.75 7.20L5.60 6.54L6.17 6.17L6.54 5.60L7.20 5.75L7.86 5.60L8.23 6.17L8.80 6.54L8.65 7.20ZM4.62 4.62L3.90 4.33L3.60 5.04L3.30 4.33L2.58 4.62L2.87 3.90L2.16 3.60L2.87 3.30L2.58 2.58L3.30 2.87L3.60 2.16L3.90 2.87L4.62 2.58L4.33 3.30L5.04 3.60L4.33 3.90Z" fill="none" stroke="#000" stroke-width="0.32"/></svg>